<mxfile host="app.diagrams.net" modified="2024-03-16T08:43:36.259Z" agent="Mozilla/5.0 (Windows NT 10.0; Win64; x64) AppleWebKit/537.36 (KHTML, like Gecko) Chrome/122.0.0.0 Safari/537.36" version="24.0.7" etag="KJv1GQYgcXETYdEPtOnl" type="github">
  <diagram name="Trang-1" id="hsz6CHSH7dWMiCtRKMh2">
    <mxGraphModel>
      <root>
        <mxCell id="0" />
        <mxCell id="1" parent="0" />
      </root>
    </mxGraphModel>
  </diagram>
</mxfile>
